# Max2Obj Version 4.0 Mar 10th, 2001
#
# object teeth to come ...
#
v  -3.325113 -53.601665 86.173462
v  -15.796944 -54.502537 72.848434
v  -24.714220 -50.876968 50.500652
v  -21.576162 -66.378807 57.483616
v  -13.691025 -68.660110 75.437050
v  -2.229842 -69.053139 86.146568
v  10.304677 -69.053139 86.291977
v  10.304677 -53.601665 86.173439
v  -2.195167 -61.849243 83.657494
v  -13.395134 -61.604858 72.387268
v  -21.345865 -58.964451 51.966522
v  -14.550959 -62.878983 74.380005
v  -2.653202 -63.080593 86.156967
v  -23.164495 -57.691193 52.503624
v  10.304677 -63.355961 86.248268
v  -2.825269 -60.653194 86.161194
v  -14.918217 -60.410007 73.928574
v  -22.685259 -60.312450 54.006203
v  23.934465 -53.601665 86.173454
v  36.406296 -54.502537 72.848427
v  45.323570 -50.876968 50.500648
v  42.185513 -66.378807 57.483612
v  34.300377 -68.660110 75.437042
v  22.839195 -69.053139 86.146561
v  10.304677 -62.148930 83.616478
v  22.804520 -61.849243 83.657486
v  34.004486 -61.604858 72.387260
v  41.955215 -58.964451 51.966518
v  35.160309 -62.878983 74.379997
v  23.262556 -63.080593 86.156960
v  43.773849 -57.691193 52.503620
v  10.304677 -60.929569 86.229652
v  23.434622 -60.653194 86.161186
v  35.527569 -60.410007 73.928566
v  43.294609 -60.312450 54.006199
# 35 vertices

vn  -0.420408 -0.042468 1.829867
vn  -1.038720 -0.095095 1.205211
vn  -1.157866 -0.239759 0.921099
vn  -1.146984 0.068416 0.981117
vn  -0.918857 -0.042926 1.397077
vn  -0.357847 -0.046346 1.857382
vn  0.000000 0.012663 1.928751
vn  0.000000 0.008888 1.928776
vn  -0.350435 1.568108 0.768279
vn  -0.344109 1.574569 0.758764
vn  -0.448133 1.583875 0.607430
vn  -1.001363 -0.042673 1.272953
vn  -0.407803 -0.039089 1.835912
vn  -1.159205 -0.230328 0.920386
vn  0.000000 0.009122 1.928775
vn  -0.375870 -0.048335 1.849860
vn  -0.962106 -0.064470 1.333766
vn  -1.148400 0.102025 0.974215
vn  0.420408 -0.042468 1.829867
vn  1.038720 -0.095095 1.205211
vn  1.157866 -0.239759 0.921099
vn  1.146984 0.068416 0.981117
vn  0.918857 -0.042926 1.397077
vn  0.357847 -0.046346 1.857382
vn  0.022748 1.598473 0.856585
vn  0.350435 1.568108 0.768279
vn  0.350435 1.568108 0.768279
vn  0.462595 1.574035 0.614594
vn  1.001363 -0.042673 1.272953
vn  0.407803 -0.039089 1.835912
vn  1.159205 -0.230328 0.920386
vn  0.000000 0.012663 1.928751
vn  0.375870 -0.048335 1.849860
vn  0.962106 -0.064470 1.333766
vn  1.148400 0.102025 0.974216
# 35 vertex normals

g teeth
s 8
f -23//-23 -24//-24 -31//-31 -30//-30
f -21//-21 -23//-23 -30//-30 -29//-29
f -24//-24 -18//-18 -32//-32 -31//-31
f -20//-20 -4//-4 -28//-28 -35//-35
f -19//-19 -20//-20 -35//-35 -34//-34
f -22//-22 -19//-19 -34//-34 -33//-33
s 0
f -23//-23 -27//-27 -26//-26 -24//-24
f -21//-21 -11//-11 -27//-27 -23//-23
f -24//-24 -26//-26 -25//-25 -18//-18
f -20//-20 -27//-27 -11//-11 -4//-4
f -19//-19 -26//-26 -27//-27 -20//-20
f -22//-22 -25//-25 -26//-26 -19//-19
s 8
f -6//-6 -12//-12 -13//-13 -7//-7
f -21//-21 -29//-29 -12//-12 -6//-6
f -7//-7 -13//-13 -14//-14 -1//-1
f -3//-3 -17//-17 -28//-28 -4//-4
f -2//-2 -16//-16 -17//-17 -3//-3
f -5//-5 -15//-15 -16//-16 -2//-2
s 0
f -6//-6 -7//-7 -9//-9 -10//-10
f -21//-21 -6//-6 -10//-10 -11//-11
f -7//-7 -1//-1 -8//-8 -9//-9
f -3//-3 -4//-4 -11//-11 -10//-10
f -2//-2 -3//-3 -10//-10 -9//-9
f -5//-5 -2//-2 -9//-9 -8//-8
# 24 faces

g
# object eyes to come ...
#
v  -41.778015 -9.768641 59.905487
v  -27.485811 -25.607523 71.416245
v  -25.916288 14.465676 77.386391
v  -35.912117 2.384425 63.932659
v  -27.277693 -17.520853 76.564911
v  -0.042830 -8.448302 84.539139
v  4.336561 6.154955 89.893295
v  -0.042790 -22.001633 86.071205
v  -24.231848 11.445263 73.144028
v  -31.746103 2.016849 61.220272
v  -25.345118 -13.842939 72.901527
v  -0.430580 -5.561296 79.557076
v  2.353556 4.190145 83.719345
v  4.713189 -8.127040 77.167686
v  10.304677 -22.001629 86.071182
v  10.304677 -9.760398 100.763672
v  10.304677 18.466404 94.693916
v  10.304677 -8.127038 77.167671
v  10.304677 -1.512213 85.107094
v  10.304677 29.401564 91.764687
v  -25.813101 25.740654 75.606331
v  -44.956444 8.194275 39.115330
v  -34.193329 19.793552 59.631947
v  -44.788315 -15.137058 39.699837
v  -21.123247 -32.637630 70.843994
v  -44.896187 -0.334874 34.816570
v  -33.423973 -28.332773 54.655754
v  62.387367 -9.768641 59.905483
v  48.095161 -25.607523 71.416237
v  46.525642 14.465676 77.386383
v  56.521469 2.384425 63.932652
v  47.887047 -17.520853 76.564903
v  20.652184 -8.448302 84.539131
v  16.272793 6.154955 89.893288
v  20.652143 -22.001633 86.071198
v  44.841202 11.445263 73.144020
v  52.355453 2.016849 61.220268
v  45.954468 -13.842939 72.901520
v  21.039932 -5.561296 79.557068
v  18.255798 4.190145 83.719337
v  15.896164 -8.127040 77.167679
v  46.422455 25.740654 75.606323
v  65.565788 8.194275 39.115326
v  54.802673 19.793552 59.631943
v  65.397659 -15.137058 39.699833
v  41.732597 -32.637630 70.843987
v  65.505531 -0.334874 34.816566
v  54.033318 -28.332773 54.655750
# 48 vertices

vn  -0.622031 -0.745401 0.636339
vn  -2.609539 -4.329225 1.443648
vn  -0.609931 -0.521498 1.619950
vn  -0.758617 0.211562 1.569717
vn  -0.590504 -0.025811 1.729165
vn  -0.888599 0.492534 1.336017
vn  -0.813219 -0.167458 1.517892
vn  -0.096278 -0.186017 0.430653
vn  -0.162518 -1.463348 1.078412
vn  0.515761 -0.211682 1.763920
vn  -0.038123 1.244153 1.381525
vn  -0.917879 1.026923 0.851794
vn  -1.063140 -0.643394 0.933834
vn  0.847635 -0.556472 1.362118
vn  0.000000 0.910899 1.658550
vn  -1.883699 0.315384 2.687864
vn  0.000000 0.203705 1.916190
vn  0.000001 -0.268335 1.906866
vn  -0.000000 -1.777523 -0.168942
vn  0.000000 0.429214 1.872169
vn  -0.733750 0.295154 1.578657
vn  -1.186931 -0.146798 0.864773
vn  -1.101344 0.405155 0.995455
vn  -2.074779 0.142979 0.602273
vn  -0.558038 -0.896523 1.459342
vn  -1.257794 0.042077 0.639156
vn  -0.915905 -0.964735 0.936932
vn  0.622031 -0.745400 0.636339
vn  2.609539 -4.329225 1.443647
vn  0.609931 -0.521498 1.619950
vn  0.758617 0.211562 1.569717
vn  0.590504 -0.025811 1.729165
vn  0.888599 0.492534 1.336016
vn  0.813219 -0.167459 1.517891
vn  0.096278 -0.186017 0.430653
vn  0.162518 -1.463348 1.078412
vn  -0.515761 -0.211683 1.763920
vn  0.038123 1.244153 1.381525
vn  0.917879 1.026923 0.851794
vn  1.063140 -0.643394 0.933834
vn  -0.847635 -0.556472 1.362118
vn  0.733750 0.295154 1.578657
vn  1.186931 -0.146798 0.864773
vn  1.101344 0.405155 0.995455
vn  2.074779 0.142979 0.602273
vn  0.558038 -0.896523 1.459342
vn  1.257794 0.042077 0.639156
vn  0.915905 -0.964735 0.936932
# 48 vertex normals

g eyes
s 32
f -28//-28 -26//-26 -45//-45 -46//-46
f -32//-32 -29//-29 -28//-28 -46//-46
s 2
f -24//-24 -47//-47 -48//-48 -22//-22
s 32
f -47//-47 -41//-41 -43//-43 -44//-44
f -47//-47 -44//-44 -45//-45 -48//-48
f -39//-39 -40//-40 -46//-46 -45//-45
f -38//-38 -39//-39 -45//-45 -44//-44
f -37//-37 -38//-38 -44//-44 -43//-43
f -36//-36 -37//-37 -43//-43 -42//-42
f -40//-40 -36//-36 -42//-42 -46//-46
s 2
f -35//-35 -41//-41 -34//-34 -31//-31
s 32
f -33//-33 -42//-42 -43//-43 -41//-41
s 2
f -35//-35 -30//-30 -33//-33 -41//-41
s 32
f -48//-48 -45//-45 -23//-23 -25//-25
f -18//-18 -5//-5 -7//-7 -19//-19
f -32//-32 -19//-19 -7//-7 -29//-29
s 2
f -3//-3 -1//-1 -21//-21 -20//-20
s 32
f -20//-20 -17//-17 -16//-16 -14//-14
f -20//-20 -21//-21 -18//-18 -17//-17
f -12//-12 -18//-18 -19//-19 -13//-13
f -11//-11 -17//-17 -18//-18 -12//-12
f -10//-10 -16//-16 -17//-17 -11//-11
f -9//-9 -15//-15 -16//-16 -10//-10
f -13//-13 -19//-19 -15//-15 -9//-9
s 2
f -8//-8 -31//-31 -34//-34 -14//-14
s 32
f -16//-16 -15//-15 -33//-33 -14//-14
s 2
f -8//-8 -14//-14 -33//-33 -30//-30
s 32
f -21//-21 -4//-4 -2//-2 -18//-18
f -27//-27 -45//-45 -26//-26
f -45//-45 -27//-27 -23//-23
s 2
f -41//-41 -47//-47 -24//-24
s 32
f -46//-46 -42//-42 -32//-32
s 2
f -35//-35 -31//-31 -30//-30
s 32
f -32//-32 -42//-42 -33//-33
s 2
f -48//-48 -25//-25 -22//-22
s 32
f -6//-6 -5//-5 -18//-18
f -18//-18 -2//-2 -6//-6
s 2
f -14//-14 -3//-3 -20//-20
s 32
f -19//-19 -32//-32 -15//-15
s 2
f -8//-8 -30//-30 -31//-31
s 32
f -32//-32 -33//-33 -15//-15
s 2
f -21//-21 -1//-1 -4//-4
# 42 faces

g
# object temples to come ...
#
v  -47.947060 10.115372 30.909182
v  -45.610184 -16.602736 34.183334
v  -34.744270 -44.906204 21.340786
v  -28.904833 -46.990700 47.999332
v  -18.177195 -52.307407 75.375862
v  -4.517528 -51.487488 88.607239
v  -31.119776 -53.040508 41.121052
v  -24.844366 -65.283051 59.318233
v  -15.866148 -38.446289 70.371155
v  10.304677 -51.487488 88.607208
v  -48.027946 -16.602737 8.356677
v  -47.947060 13.676127 12.773047
v  -47.839516 36.290966 28.463923
v  -25.544973 55.037991 70.980980
v  10.304677 53.334316 85.184669
v  -47.998260 -3.926880 8.784019
v  -47.900940 24.291359 18.606588
v  -34.973526 48.302780 50.854492
v  10.304677 34.075630 90.834175
v  -25.773600 31.787846 74.925072
v  -36.758202 25.469170 56.642952
v  -0.797020 -26.971558 86.498665
v  10.304677 -26.644302 86.470490
v  -46.980667 -1.103161 27.754969
v  -30.248453 -32.675808 52.873043
v  -38.525505 -31.859322 9.422003
v  -16.493587 -39.225189 4.310267
v  -13.658007 -57.404549 9.229635
v  -26.404100 -58.256470 54.970337
v  68.556404 10.115372 30.909178
v  66.219528 -16.602736 34.183331
v  55.353615 -44.906204 21.340784
v  38.786545 -52.307407 75.375854
v  25.126881 -51.487488 88.607231
v  51.729126 -53.040508 41.121048
v  45.453720 -65.283051 59.318230
v  36.475502 -38.446289 70.371147
v  68.637299 -16.602737 8.356676
v  68.556404 13.676127 12.773046
v  68.448868 36.290966 28.463921
v  46.154327 55.037991 70.980972
v  68.607605 -3.926880 8.784019
v  68.510284 24.291359 18.606586
v  55.582870 48.302780 50.854488
v  46.382950 31.787846 74.925064
v  57.367554 25.469170 56.642948
v  21.406372 -26.971558 86.498657
v  67.590012 -1.103161 27.754967
v  50.857803 -32.675808 52.873039
v  49.514183 -46.990700 47.999329
v  59.134857 -31.859322 9.422002
v  37.102940 -39.225189 4.310267
v  10.304677 -38.217674 4.037610
v  34.267361 -57.404549 9.229634
v  10.304677 -57.559322 9.271502
v  47.013451 -58.256470 54.970333
# 56 vertices

vn  -1.313890 -0.016320 0.329366
vn  -1.237996 -0.570492 0.365629
vn  -0.971328 -1.056150 -0.665709
vn  -1.054916 -0.292938 1.136618
vn  -0.868888 0.655055 1.280428
vn  -0.484353 0.337103 1.759746
vn  -1.171960 -0.439300 0.788294
vn  -1.199917 -0.031605 0.840833
vn  -0.925206 0.412740 1.315461
vn  0.000000 0.141533 1.922723
vn  -1.280963 -0.477792 0.144231
vn  -1.333519 0.007884 0.001809
vn  -1.219741 0.157327 0.760853
vn  -0.768068 0.239340 1.555375
vn  0.000000 0.417531 1.875254
vn  -1.327675 -0.069003 0.164468
vn  -1.333511 0.009787 0.002719
vn  -1.079935 0.323299 1.076243
vn  0.000000 0.467348 1.861470
vn  -0.780917 0.316082 1.525697
vn  -1.080970 0.312205 1.077894
vn  -0.338898 0.228199 1.849095
vn  0.000000 0.141533 1.922723
vn  -1.319021 -0.200712 0.182921
vn  -0.944043 -0.520212 1.240815
vn  -0.763609 -1.154986 -0.970435
vn  -0.337033 -0.642533 -1.732123
vn  -0.244657 -0.489968 -1.820589
vn  -1.199917 -0.031605 0.840833
vn  1.313890 -0.016320 0.329366
vn  1.237996 -0.570492 0.365629
vn  0.971328 -1.056150 -0.665709
vn  0.868888 0.655055 1.280428
vn  0.484353 0.337103 1.759746
vn  1.171960 -0.439300 0.788294
vn  1.199917 -0.031605 0.840833
vn  0.925206 0.412740 1.315461
vn  1.280963 -0.477792 0.144231
vn  1.333519 0.007884 0.001809
vn  1.219741 0.157327 0.760853
vn  0.768068 0.239340 1.555375
vn  1.327675 -0.069003 0.164468
vn  1.333511 0.009787 0.002719
vn  1.079935 0.323299 1.076243
vn  0.780918 0.316082 1.525697
vn  1.080970 0.312205 1.077894
vn  0.338898 0.228199 1.849095
vn  1.319021 -0.200712 0.182921
vn  0.944043 -0.520212 1.240815
vn  1.054916 -0.292938 1.136618
vn  0.763609 -1.154986 -0.970435
vn  0.337033 -0.642533 -1.732123
vn  -0.000000 -0.433331 -1.871061
vn  0.244657 -0.489968 -1.820589
vn  -0.000000 -0.433331 -1.871061
vn  1.199917 -0.031605 0.840833
# 56 vertex normals

g temples
s 2
f -28//-28 -53//-53 -50//-50 -49//-49
f -55//-55 -46//-46 -54//-54 -50//-50
s 34
f -41//-41 -33//-33 -56//-56 -45//-45
s 32
f -37//-37 -38//-38 -42//-42 -43//-43
f -39//-39 -36//-36 -37//-37 -43//-43
f -44//-44 -56//-56 -36//-36 -39//-39
s 2
f -51//-51 -35//-35 -48//-48 -52//-52
f -47//-47 -34//-34 -35//-35 -51//-51
f -54//-54 -31//-31 -30//-30 -29//-29
f -4//-4 -2//-2 -29//-29 -30//-30
f -22//-22 -7//-7 -1//-1 -21//-21
f -26//-26 -22//-22 -25//-25 -19//-19
s 34
f -15//-15 -18//-18 -27//-27 -9//-9
s 32
f -12//-12 -16//-16 -42//-42 -38//-38
f -13//-13 -16//-16 -12//-12 -11//-11
f -17//-17 -13//-13 -11//-11 -27//-27
s 2
f -23//-23 -24//-24 -20//-20 -10//-10
f -47//-47 -23//-23 -10//-10 -34//-34
f -25//-25 -3//-3 -5//-5 -6//-6
f -4//-4 -5//-5 -3//-3 -2//-2
f -31//-31 -54//-54 -46//-46
f -55//-55 -50//-50 -53//-53
f -53//-53 -52//-52 -48//-48
f -53//-53 -48//-48 -32//-32
s 32
f -56//-56 -44//-44 -40//-40
s 34
f -41//-41 -46//-46 -55//-55
s 32
f -40//-40 -45//-45 -56//-56
s 34
f -41//-41 -55//-55 -33//-33
s 2
f -32//-32 -55//-55 -53//-53
f -6//-6 -19//-19 -25//-25
f -26//-26 -7//-7 -22//-22
f -7//-7 -20//-20 -24//-24
f -7//-7 -8//-8 -20//-20
s 32
f -27//-27 -14//-14 -17//-17
s 34
f -15//-15 -26//-26 -19//-19
s 32
f -14//-14 -27//-27 -18//-18
s 34
f -15//-15 -9//-9 -26//-26
s 2
f -8//-8 -7//-7 -26//-26
# 38 faces

g
# object jaws to come ...
#
v  -10.667307 -76.578384 14.418113
v  -23.741240 -81.126236 35.217171
v  -23.486399 -83.900940 58.548328
v  -10.728456 -83.900932 79.987923
v  -0.785504 -83.900909 87.783295
v  -11.605267 -96.268501 62.625149
v  -11.751490 -94.924835 75.229263
v  3.118829 -94.924797 87.229660
v  10.304677 -76.578362 14.418097
v  10.304677 -94.924789 87.313019
v  10.304677 -99.819031 72.615425
v  10.304677 -72.401695 88.495117
v  -2.616108 -72.252884 88.352791
v  -14.461403 -72.107033 78.417877
v  -24.530024 -69.592758 59.140018
v  -29.415613 -59.930141 45.011719
v  -33.326797 -49.537872 23.359959
v  -28.404333 -53.246105 19.517910
v  -12.876196 -62.416851 10.585975
v  10.304677 -62.659836 10.651711
v  31.276661 -76.578384 14.418112
v  44.350594 -81.126236 35.217167
v  44.095749 -83.900940 58.548325
v  31.337809 -83.900932 79.987923
v  21.394859 -83.900909 87.783287
v  32.214619 -96.268501 62.625145
v  32.360840 -94.924835 75.229256
v  17.490524 -94.924797 87.229652
v  10.304677 -83.900909 87.911942
v  23.225462 -72.252884 88.352783
v  35.070755 -72.107033 78.417870
v  45.139374 -69.592758 59.140015
v  50.024963 -59.930141 45.011715
v  53.936142 -49.537872 23.359957
v  49.013687 -53.246105 19.517908
v  33.485550 -62.416851 10.585974
# 36 vertices

vn  -0.286915 -1.110639 -1.451477
vn  -0.886347 -1.200578 -0.626583
vn  -1.091915 -0.932875 0.457350
vn  -0.787158 -0.353454 1.509319
vn  -0.348534 -0.246220 1.842635
vn  -0.487761 -1.646526 -0.234329
vn  -0.724535 -1.228990 0.925881
vn  -0.222342 -1.084096 1.497880
vn  -0.000000 -1.151694 -1.473254
vn  0.000000 -1.059997 1.551593
vn  0.000000 -1.784223 -0.025683
vn  0.000000 -0.083627 1.926681
vn  -0.378644 -0.166895 1.840594
vn  -0.898451 -0.293339 1.389610
vn  -1.170033 -0.184780 0.903569
vn  -1.260357 -0.564206 0.158580
vn  -1.077502 -0.815735 -0.716875
vn  -0.785901 -0.804833 -1.292787
vn  -0.382845 -0.514937 -1.761766
vn  -0.000000 -0.433331 -1.871061
vn  0.286915 -1.110639 -1.451477
vn  0.886347 -1.200577 -0.626583
vn  1.091915 -0.932875 0.457350
vn  0.787158 -0.353454 1.509319
vn  0.348535 -0.246220 1.842635
vn  0.487761 -1.646526 -0.234329
vn  0.724535 -1.228990 0.925881
vn  0.222342 -1.084096 1.497880
vn  0.000000 -0.086599 1.926527
vn  0.378644 -0.166895 1.840594
vn  0.898451 -0.293339 1.389610
vn  1.170033 -0.184780 0.903570
vn  1.260357 -0.564206 0.158579
vn  1.077503 -0.815734 -0.716874
vn  0.785901 -0.804833 -1.292787
vn  0.382845 -0.514937 -1.761766
# 36 vertex normals

g jaws
s 2
f -19//-19 -36//-36 -35//-35 -20//-20
f -21//-21 -20//-20 -35//-35 -34//-34
f -24//-24 -23//-23 -33//-33 -32//-32
f -25//-25 -24//-24 -32//-32 -8//-8
f -30//-30 -34//-34 -35//-35 -31//-31
f -8//-8 -32//-32 -29//-29 -27//-27
f -23//-23 -22//-22 -34//-34 -33//-33
f -33//-33 -30//-30 -29//-29 -32//-32
f -17//-17 -28//-28 -36//-36 -18//-18
f -28//-28 -26//-26 -31//-31 -36//-36
f -2//-2 -3//-3 -15//-15 -16//-16
f -15//-15 -3//-3 -4//-4 -14//-14
f -7//-7 -12//-12 -13//-13 -6//-6
f -25//-25 -8//-8 -12//-12 -7//-7
f -10//-10 -11//-11 -15//-15 -14//-14
f -8//-8 -27//-27 -9//-9 -12//-12
f -6//-6 -13//-13 -14//-14 -5//-5
f -13//-13 -12//-12 -9//-9 -10//-10
f -17//-17 -1//-1 -16//-16 -28//-28
f -28//-28 -16//-16 -11//-11 -26//-26
f -34//-34 -22//-22 -21//-21
f -34//-34 -30//-30 -33//-33
f -31//-31 -35//-35 -36//-36
f -18//-18 -36//-36 -19//-19
f -26//-26 -30//-30 -31//-31
f -29//-29 -30//-30 -26//-26
f -27//-27 -29//-29 -26//-26
f -14//-14 -4//-4 -5//-5
f -14//-14 -13//-13 -10//-10
f -11//-11 -16//-16 -15//-15
f -1//-1 -2//-2 -16//-16
f -26//-26 -11//-11 -10//-10
f -26//-26 -10//-10 -9//-9
f -27//-27 -26//-26 -9//-9
# 34 faces

g
# object skull to come ...
#
v  -4.494930 96.979935 -33.903046
v  -11.745468 96.979927 -15.252423
v  -11.745462 96.979927 7.801014
v  -3.253509 96.979927 26.451628
v  -3.253525 81.932281 -71.204277
v  -22.250170 83.852600 -61.126411
v  -31.801443 85.103706 -25.650820
v  -31.801428 85.103699 18.199427
v  -15.648764 82.452423 53.675003
v  -8.425108 56.502506 -85.841232
v  -27.983095 59.497177 -73.268082
v  -47.717941 65.889931 -29.008717
v  -47.717918 65.889915 25.698866
v  -25.485689 61.516197 69.958214
v  -8.499557 29.607265 -93.171577
v  -28.065622 29.035702 -79.354660
v  -47.947052 22.252459 -30.909122
v  -9.476635 -6.203987 -90.590279
v  -29.148764 -6.203988 -76.415688
v  -48.497070 -16.602737 3.345514
v  -24.305506 -38.979946 -47.474281
v  -39.977623 -26.848904 4.844814
v  -17.467550 -32.980961 2.620568
v  10.304677 96.979927 26.451609
v  10.304677 82.452423 53.674961
v  10.304677 59.208717 83.569580
v  -47.947060 14.913619 6.470083
v  -47.806755 44.265511 27.718962
v  -48.242821 -2.314603 2.987780
v  -47.880692 30.009850 13.790810
v  -38.083229 54.197281 45.510139
v  25.104282 96.979935 -33.903042
v  32.354820 96.979927 -15.252422
v  32.354813 96.979927 7.801013
v  23.862862 96.979927 26.451626
v  23.862877 81.932281 -71.204269
v  42.859520 83.852600 -61.126408
v  52.410797 85.103706 -25.650818
v  52.410782 85.103699 18.199425
v  36.258118 82.452423 53.675003
v  29.034460 56.502506 -85.841225
v  48.592445 59.497177 -73.268074
v  68.327286 65.889931 -29.008715
v  68.327263 65.889915 25.698864
v  46.095039 61.516197 69.958206
v  29.108910 29.607265 -93.171570
v  48.674973 29.035702 -79.354660
v  68.556396 22.252459 -30.909119
v  30.085987 -6.203987 -90.590271
v  49.758118 -6.203988 -76.415680
v  69.106415 -16.602737 3.345513
v  44.914856 -38.979946 -47.474277
v  60.586967 -26.848904 4.844813
v  38.076904 -32.980961 2.620567
v  10.416121 96.834610 -39.463276
v  10.304677 100.680290 -3.732016
v  10.304677 81.932281 -71.204300
v  10.304677 56.502506 -85.841255
v  10.304677 29.607265 -93.171608
v  10.304677 -6.203987 -90.590309
v  10.304677 -38.979946 -47.474316
v  10.304677 -32.980953 2.620543
v  68.556404 14.913619 6.470082
v  68.416107 44.265511 27.718960
v  68.852165 -2.314603 2.987780
v  68.490036 30.009850 13.790809
v  58.692574 54.197281 45.510136
# 67 vertices

vn  -0.209135 1.719315 -0.418171
vn  -0.356225 1.715420 -0.128552
vn  -0.360736 1.709958 0.177822
vn  -0.192985 1.687284 0.562093
vn  -0.134877 1.265290 -1.345963
vn  -0.549910 1.316337 -1.031051
vn  -0.708115 1.496493 -0.233678
vn  -0.685352 1.491398 0.372490
vn  -0.380441 1.422195 1.026736
vn  -0.260167 0.631500 -1.764287
vn  -0.809542 0.539844 -1.417296
vn  -1.189258 0.677668 -0.474200
vn  -1.153111 0.732492 0.558273
vn  -0.588185 1.140459 1.215239
vn  -0.292105 0.161091 -1.873885
vn  -0.908737 0.068239 -1.409691
vn  -1.242693 -0.250325 -0.645264
vn  -0.253437 -0.733015 -1.719910
vn  -0.937492 -0.530584 -1.246063
vn  -1.115058 -0.816058 -0.583977
vn  -0.562199 -1.526495 -0.580008
vn  -0.737910 -1.460373 -0.298761
vn  -0.113492 -1.759133 0.278549
vn  0.000000 1.689552 0.620413
vn  0.000000 1.461473 1.106632
vn  0.000000 1.282353 1.341225
vn  -1.333410 0.023669 0.005429
vn  -1.302276 0.042568 0.412601
vn  -1.333148 0.041649 0.010934
vn  -1.333508 0.010821 0.001399
vn  -1.073163 0.073075 1.142230
vn  0.209650 1.719416 -0.417145
vn  0.356225 1.715420 -0.128552
vn  0.360736 1.709958 0.177822
vn  0.192985 1.687284 0.562093
vn  0.134825 1.265019 -1.346272
vn  0.550032 1.316235 -1.031067
vn  0.708115 1.496492 -0.233678
vn  0.685352 1.491398 0.372490
vn  0.380441 1.422195 1.026736
vn  0.260167 0.631500 -1.764287
vn  0.809542 0.539844 -1.417296
vn  1.189258 0.677668 -0.474200
vn  1.153111 0.732491 0.558273
vn  0.588186 1.140459 1.215239
vn  0.292106 0.161091 -1.873885
vn  0.908737 0.068239 -1.409691
vn  1.242693 -0.250325 -0.645264
vn  0.253438 -0.733015 -1.719910
vn  0.937492 -0.530584 -1.246063
vn  1.115058 -0.816058 -0.583977
vn  0.562199 -1.526495 -0.580008
vn  0.737910 -1.460373 -0.298760
vn  0.113492 -1.759133 0.278549
vn  0.000521 1.706790 -0.562586
vn  -0.000006 1.784368 0.007367
vn  0.000000 1.274096 -1.350388
vn  0.000000 0.642176 -1.799562
vn  0.000000 0.160743 -1.920958
vn  0.000000 -0.815704 -1.715469
vn  0.000000 -1.715108 -0.532209
vn  0.000000 -1.769617 0.247608
vn  1.333410 0.023669 0.005429
vn  1.302276 0.042567 0.412601
vn  1.333148 0.041649 0.010934
vn  1.333508 0.010821 0.001399
vn  1.073163 0.073075 1.142230
# 67 vertex normals

g skull
s 32
f -61//-61 -66//-66 -67//-67 -62//-62
f -60//-60 -65//-65 -66//-66 -61//-61
f -59//-59 -64//-64 -65//-65 -60//-60
f -43//-43 -44//-44 -64//-64 -59//-59
f -63//-63 -58//-58 -57//-57 -62//-62
f -56//-56 -61//-61 -62//-62 -57//-57
f -55//-55 -60//-60 -61//-61 -56//-56
f -54//-54 -59//-59 -60//-60 -55//-55
f -42//-42 -43//-43 -59//-59 -54//-54
f -58//-58 -53//-53 -52//-52 -57//-57
f -51//-51 -56//-56 -57//-57 -52//-52
f -38//-38 -56//-56 -51//-51 -41//-41
s 34
f -53//-53 -50//-50 -49//-49 -52//-52
f -48//-48 -51//-51 -52//-52 -49//-49
s 2
f -46//-46 -48//-48 -49//-49 -47//-47
f -7//-7 -6//-6 -45//-45 -47//-47
s 32
f -13//-13 -63//-63 -62//-62 -67//-67
f -63//-63 -11//-11 -10//-10 -58//-58
f -10//-10 -9//-9 -53//-53 -58//-58
s 34
f -53//-53 -9//-9 -8//-8 -50//-50
s 2
f -50//-50 -8//-8 -7//-7 -47//-47
s 32
f -55//-55 -56//-56 -38//-38 -40//-40
f -30//-30 -31//-31 -36//-36 -35//-35
f -29//-29 -30//-30 -35//-35 -34//-34
f -28//-28 -29//-29 -34//-34 -33//-33
f -43//-43 -28//-28 -33//-33 -44//-44
f -32//-32 -31//-31 -26//-26 -27//-27
f -25//-25 -26//-26 -31//-31 -30//-30
f -24//-24 -25//-25 -30//-30 -29//-29
f -23//-23 -24//-24 -29//-29 -28//-28
f -42//-42 -23//-23 -28//-28 -43//-43
f -27//-27 -26//-26 -21//-21 -22//-22
f -20//-20 -21//-21 -26//-26 -25//-25
f -2//-2 -5//-5 -20//-20 -25//-25
s 34
f -22//-22 -21//-21 -18//-18 -19//-19
f -17//-17 -18//-18 -21//-21 -20//-20
s 2
f -15//-15 -16//-16 -18//-18 -17//-17
f -7//-7 -16//-16 -14//-14 -6//-6
s 32
f -13//-13 -36//-36 -31//-31 -32//-32
f -32//-32 -27//-27 -10//-10 -11//-11
f -10//-10 -27//-27 -22//-22 -9//-9
s 34
f -22//-22 -19//-19 -8//-8 -9//-9
s 2
f -19//-19 -16//-16 -7//-7 -8//-8
s 32
f -24//-24 -4//-4 -2//-2 -25//-25
s 34
f -51//-51 -48//-48 -39//-39
s 2
f -50//-50 -47//-47 -49//-49
f -45//-45 -46//-46 -47//-47
s 32
f -13//-13 -11//-11 -63//-63
f -12//-12 -67//-67 -66//-66
f -12//-12 -66//-66 -65//-65
f -65//-65 -64//-64 -12//-12
f -12//-12 -64//-64 -44//-44
f -13//-13 -67//-67 -12//-12
f -54//-54 -55//-55 -37//-37
s 34
f -39//-39 -41//-41 -51//-51
s 32
f -55//-55 -40//-40 -37//-37
s 34
f -20//-20 -3//-3 -17//-17
s 2
f -19//-19 -18//-18 -16//-16
f -14//-14 -16//-16 -15//-15
s 32
f -13//-13 -32//-32 -11//-11
f -12//-12 -35//-35 -36//-36
f -12//-12 -34//-34 -35//-35
f -12//-12 -33//-33 -34//-34
f -12//-12 -44//-44 -33//-33
f -12//-12 -36//-36 -13//-13
f -23//-23 -1//-1 -24//-24
s 34
f -3//-3 -20//-20 -5//-5
s 32
f -24//-24 -1//-1 -4//-4
# 68 faces

g
